<?xml version="1.0" encoding="utf-8"?>
<!-- Generator: Adobe Illustrator 24.3.0, SVG Export Plug-In . SVG Version: 6.00 Build 0)  -->
<svg version="1.1" id="Layer_1" xmlns="http://www.w3.org/2000/svg" xmlns:xlink="http://www.w3.org/1999/xlink" x="0px" y="0px"
	 viewBox="0 0 28 28" style="enable-background:new 0 0 28 28;" xml:space="preserve">
<style type="text/css">
	.st0{fill:#968EBF;}
	.st1{fill:#FFFFFF;}
</style>
<path class="st0" d="M14,0c7.7,0,14,6.3,14,14s-6.3,14-14,14S0,21.7,0,14S6.3,0,14,0z"/>
<path class="st1" d="M18.2,12.5h-2.8v-3c0-0.8-0.7-1.5-1.5-1.5s-1.5,0.7-1.5,1.5v3H9.5C8.7,12.5,8,13.2,8,14s0.7,1.5,1.5,1.5h2.8v3
	c0,0.8,0.7,1.5,1.5,1.5s1.5-0.7,1.5-1.5v-3h2.8c0.8,0,1.5-0.7,1.5-1.5S19,12.5,18.2,12.5z"/>
</svg>
